<mxfile host="drawio-plugin" modified="2022-02-22T09:38:03.790Z" agent="5.0 (Macintosh; Intel Mac OS X 12_2_1) AppleWebKit/537.36 (KHTML, like Gecko) Chrome/89.0.4389.114 Safari/537.36" etag="T1AMiCrmbq8vTSGFBs3N" version="15.5.4" type="embed"><diagram id="DWjpSvbVxY2pOprUcE6g" name="Page-1"><mxGraphModel dx="1003" dy="574" grid="1" gridSize="10" guides="1" tooltips="1" connect="1" arrows="1" fold="1" page="1" pageScale="1" pageWidth="827" pageHeight="1169" math="0" shadow="0"><root><mxCell id="0"/><mxCell id="1" parent="0"/><mxCell id="2" value="" style="rounded=0;whiteSpace=wrap;html=1;fillColor=none;strokeColor=none;sketch=1;fontFamily=Architects Daughter;fontSource=https%3A%2F%2Ffonts.googleapis.com%2Fcss%3Ffamily%3DArchitects%2BDaughter;" parent="1" vertex="1"><mxGeometry x="56" y="197" width="889" height="337" as="geometry"/></mxCell><mxCell id="WkdalmxvpJmTztUUumEF-3" value="Domain" style="ellipse;whiteSpace=wrap;html=1;verticalAlign=top;sketch=1;fontFamily=Architects Daughter;fontSource=https%3A%2F%2Ffonts.googleapis.com%2Fcss%3Ffamily%3DArchitects%2BDaughter;" parent="1" vertex="1"><mxGeometry x="240" y="210" width="575.5" height="310" as="geometry"/></mxCell><mxCell id="WkdalmxvpJmTztUUumEF-17" value="Analysis" style="rounded=0;whiteSpace=wrap;html=1;fillColor=#f5f5f5;fontColor=#333333;strokeColor=#666666;fontStyle=1;sketch=1;fontFamily=Architects Daughter;fontSource=https%3A%2F%2Ffonts.googleapis.com%2Fcss%3Ffamily%3DArchitects%2BDaughter;" parent="1" vertex="1"><mxGeometry x="467.75" y="240" width="120" height="60" as="geometry"/></mxCell><mxCell id="WkdalmxvpJmTztUUumEF-19" style="rounded=0;orthogonalLoop=1;jettySize=auto;html=1;exitX=0.5;exitY=0;exitDx=0;exitDy=0;startArrow=classic;startFill=1;endArrow=none;endFill=0;dashed=1;sketch=1;fontFamily=Architects Daughter;fontSource=https%3A%2F%2Ffonts.googleapis.com%2Fcss%3Ffamily%3DArchitects%2BDaughter;" parent="1" source="WkdalmxvpJmTztUUumEF-18" target="WkdalmxvpJmTztUUumEF-17" edge="1"><mxGeometry relative="1" as="geometry"/></mxCell><mxCell id="WkdalmxvpJmTztUUumEF-20" style="rounded=0;orthogonalLoop=1;jettySize=auto;html=1;entryX=0;entryY=0.5;entryDx=0;entryDy=0;sketch=1;fontFamily=Architects Daughter;fontSource=https%3A%2F%2Ffonts.googleapis.com%2Fcss%3Ffamily%3DArchitects%2BDaughter;" parent="1" source="WkdalmxvpJmTztUUumEF-18" target="WkdalmxvpJmTztUUumEF-28" edge="1"><mxGeometry relative="1" as="geometry"><mxPoint x="635.5" y="410" as="targetPoint"/></mxGeometry></mxCell><mxCell id="WkdalmxvpJmTztUUumEF-25" value="" style="edgeStyle=orthogonalEdgeStyle;rounded=0;orthogonalLoop=1;jettySize=auto;html=1;startArrow=classic;startFill=1;endArrow=none;endFill=0;sketch=1;fontFamily=Architects Daughter;fontSource=https%3A%2F%2Ffonts.googleapis.com%2Fcss%3Ffamily%3DArchitects%2BDaughter;" parent="1" source="WkdalmxvpJmTztUUumEF-18" target="WkdalmxvpJmTztUUumEF-24" edge="1"><mxGeometry relative="1" as="geometry"/></mxCell><mxCell id="WkdalmxvpJmTztUUumEF-18" value="Analytical Data" style="rounded=0;whiteSpace=wrap;html=1;fillColor=#f5f5f5;fontColor=#333333;strokeColor=#666666;fontStyle=1;sketch=1;fontFamily=Architects Daughter;fontSource=https%3A%2F%2Ffonts.googleapis.com%2Fcss%3Ffamily%3DArchitects%2BDaughter;" parent="1" vertex="1"><mxGeometry x="467.75" y="330" width="120" height="60" as="geometry"/></mxCell><mxCell id="WkdalmxvpJmTztUUumEF-24" value="Operational Data" style="rounded=0;whiteSpace=wrap;html=1;fillColor=#f5f5f5;fontColor=#333333;strokeColor=#666666;fontStyle=1;sketch=1;fontFamily=Architects Daughter;fontSource=https%3A%2F%2Ffonts.googleapis.com%2Fcss%3Ffamily%3DArchitects%2BDaughter;" parent="1" vertex="1"><mxGeometry x="260" y="330" width="120" height="60" as="geometry"/></mxCell><mxCell id="WkdalmxvpJmTztUUumEF-28" value="Data Product" style="rounded=0;whiteSpace=wrap;html=1;fillColor=#f5f5f5;fontColor=#333333;strokeColor=#666666;fontStyle=1;sketch=1;fontFamily=Architects Daughter;fontSource=https%3A%2F%2Ffonts.googleapis.com%2Fcss%3Ffamily%3DArchitects%2BDaughter;" parent="1" vertex="1"><mxGeometry x="650" y="330" width="120" height="60" as="geometry"/></mxCell><mxCell id="WkdalmxvpJmTztUUumEF-33" value="Domain" style="ellipse;whiteSpace=wrap;html=1;verticalAlign=middle;sketch=1;fontFamily=Architects Daughter;fontSource=https%3A%2F%2Ffonts.googleapis.com%2Fcss%3Ffamily%3DArchitects%2BDaughter;" parent="1" vertex="1"><mxGeometry x="840.5" y="330" width="90" height="60" as="geometry"/></mxCell><mxCell id="WkdalmxvpJmTztUUumEF-31" style="rounded=0;orthogonalLoop=1;jettySize=auto;html=1;entryX=1;entryY=0.5;entryDx=0;entryDy=0;startArrow=none;startFill=0;endArrow=classic;endFill=1;exitX=0;exitY=0.5;exitDx=0;exitDy=0;dashed=1;sketch=1;fontFamily=Architects Daughter;fontSource=https%3A%2F%2Ffonts.googleapis.com%2Fcss%3Ffamily%3DArchitects%2BDaughter;" parent="1" source="WkdalmxvpJmTztUUumEF-33" target="WkdalmxvpJmTztUUumEF-28" edge="1"><mxGeometry relative="1" as="geometry"><mxPoint x="875.5" y="360" as="sourcePoint"/></mxGeometry></mxCell><mxCell id="WkdalmxvpJmTztUUumEF-41" value="Domain" style="ellipse;whiteSpace=wrap;html=1;verticalAlign=top;sketch=1;fontFamily=Architects Daughter;fontSource=https%3A%2F%2Ffonts.googleapis.com%2Fcss%3Ffamily%3DArchitects%2BDaughter;" parent="1" vertex="1"><mxGeometry x="70" y="220" width="140" height="100" as="geometry"/></mxCell><mxCell id="WkdalmxvpJmTztUUumEF-42" value="Data Product" style="rounded=0;whiteSpace=wrap;html=1;fillColor=#f5f5f5;fontColor=#333333;strokeColor=#666666;fontStyle=1;sketch=1;fontFamily=Architects Daughter;fontSource=https%3A%2F%2Ffonts.googleapis.com%2Fcss%3Ffamily%3DArchitects%2BDaughter;" parent="1" vertex="1"><mxGeometry x="97" y="250" width="90" height="40" as="geometry"/></mxCell><mxCell id="WkdalmxvpJmTztUUumEF-45" style="rounded=0;orthogonalLoop=1;jettySize=auto;html=1;startArrow=none;startFill=0;endArrow=classic;endFill=1;exitX=0;exitY=0.5;exitDx=0;exitDy=0;entryX=1;entryY=0.5;entryDx=0;entryDy=0;dashed=1;sketch=1;fontFamily=Architects Daughter;fontSource=https%3A%2F%2Ffonts.googleapis.com%2Fcss%3Ffamily%3DArchitects%2BDaughter;" parent="1" source="WkdalmxvpJmTztUUumEF-17" target="WkdalmxvpJmTztUUumEF-42" edge="1"><mxGeometry relative="1" as="geometry"><mxPoint x="605.5" y="415" as="sourcePoint"/><mxPoint x="230" y="280" as="targetPoint"/></mxGeometry></mxCell><mxCell id="WkdalmxvpJmTztUUumEF-65" value="Domain" style="ellipse;whiteSpace=wrap;html=1;verticalAlign=top;sketch=1;fontFamily=Architects Daughter;fontSource=https%3A%2F%2Ffonts.googleapis.com%2Fcss%3Ffamily%3DArchitects%2BDaughter;" parent="1" vertex="1"><mxGeometry x="70" y="375" width="140" height="100" as="geometry"/></mxCell><mxCell id="WkdalmxvpJmTztUUumEF-66" value="Data Product" style="rounded=0;whiteSpace=wrap;html=1;fillColor=#f5f5f5;fontColor=#333333;strokeColor=#666666;fontStyle=1;sketch=1;fontFamily=Architects Daughter;fontSource=https%3A%2F%2Ffonts.googleapis.com%2Fcss%3Ffamily%3DArchitects%2BDaughter;" parent="1" vertex="1"><mxGeometry x="97" y="405" width="90" height="40" as="geometry"/></mxCell><mxCell id="WkdalmxvpJmTztUUumEF-44" style="rounded=0;orthogonalLoop=1;jettySize=auto;html=1;entryX=1;entryY=0.5;entryDx=0;entryDy=0;startArrow=classic;startFill=1;endArrow=none;endFill=0;exitX=0.5;exitY=1;exitDx=0;exitDy=0;sketch=1;fontFamily=Architects Daughter;fontSource=https%3A%2F%2Ffonts.googleapis.com%2Fcss%3Ffamily%3DArchitects%2BDaughter;" parent="1" source="WkdalmxvpJmTztUUumEF-28" target="WkdalmxvpJmTztUUumEF-66" edge="1"><mxGeometry relative="1" as="geometry"><mxPoint x="322.5" y="560" as="sourcePoint"/><mxPoint x="135.5" y="510" as="targetPoint"/><Array as="points"><mxPoint x="710" y="425"/><mxPoint x="570" y="425"/></Array></mxGeometry></mxCell></root></mxGraphModel></diagram></mxfile>